<svg version="1.1" id="Layer_1" xmlns="http://www.w3.org/2000/svg" xmlns:xlink="http://www.w3.org/1999/xlink" x="0px" y="0px"
	 width="100%" viewBox="0 0 100 100" enable-background="new 0 0 100 100" xml:space="preserve">
<path fill="#333333" opacity="1.000000" stroke="none" 
	d="
M66.000000,101.000000 
	C56.312439,101.000000 46.624878,101.000000 36.446518,100.643326 
	C34.909199,99.550354 33.955887,98.588028 32.801964,98.112160 
	C18.750177,92.317253 8.728337,82.644127 3.516678,68.185104 
	C3.081539,66.977875 1.857509,66.054993 1.000000,65.000000 
	C1.000000,55.979103 1.000000,46.958210 1.358567,37.434433 
	C2.129439,36.453293 2.733742,36.041634 2.926102,35.487080 
	C8.415829,19.660791 18.915737,8.804593 34.741581,3.125927 
	C35.633789,2.805784 36.253475,1.726147 37.000000,1.000000 
	C46.020893,1.000000 55.041790,1.000000 64.565582,1.358680 
	C65.389931,2.076410 65.645538,2.634731 66.042297,2.765804 
	C82.377953,8.162513 93.263451,19.054680 99.015259,35.217869 
	C99.277252,35.954109 100.320580,36.412304 101.000000,37.000000 
	C101.000000,46.020893 101.000000,55.041790 100.641365,64.565666 
	C99.870148,65.548637 99.259003,65.962502 99.073906,66.518265 
	C93.926773,81.973122 83.601692,92.409538 68.531387,98.368805 
	C67.501762,98.775948 66.835335,100.101540 66.000000,101.000000 
M40.993507,56.487049 
	C40.993507,61.050900 40.993507,65.614746 40.993507,71.008919 
	C51.367313,64.079620 60.930653,57.691681 70.984695,50.975967 
	C60.714130,44.141998 51.145187,37.774887 40.993507,31.020027 
	C40.993507,39.847752 40.993507,47.669529 40.993507,56.487049 
z"/>
<path fill="#000000" opacity="1.000000" stroke="none" 
	d="
M36.531342,1.000000 
	C36.253475,1.726147 35.633789,2.805784 34.741581,3.125927 
	C18.915737,8.804593 8.415829,19.660791 2.926102,35.487080 
	C2.733742,36.041634 2.129439,36.453293 1.358567,36.965775 
	C1.000000,25.073397 1.000000,13.146794 1.000000,1.000000 
	C12.686640,1.000000 24.374662,1.000000 36.531342,1.000000 
z"/>
<path fill="#000000" opacity="1.000000" stroke="none" 
	d="
M101.000000,36.531342 
	C100.320580,36.412304 99.277252,35.954109 99.015259,35.217869 
	C93.263451,19.054680 82.377953,8.162513 66.042297,2.765804 
	C65.645538,2.634731 65.389931,2.076410 65.034241,1.358680 
	C76.926605,1.000000 88.853210,1.000000 101.000000,1.000000 
	C101.000000,12.686641 101.000000,24.374662 101.000000,36.531342 
z"/>
<path fill="#000000" opacity="1.000000" stroke="none" 
	d="
M1.000000,65.468658 
	C1.857509,66.054993 3.081539,66.977875 3.516678,68.185104 
	C8.728337,82.644127 18.750177,92.317253 32.801964,98.112160 
	C33.955887,98.588028 34.909199,99.550354 35.977859,100.643326 
	C24.405703,101.000000 12.811404,101.000000 1.000000,101.000000 
	C1.000000,89.313332 1.000000,77.625328 1.000000,65.468658 
z"/>
<path fill="#000000" opacity="1.000000" stroke="none" 
	d="
M66.468658,101.000000 
	C66.835335,100.101540 67.501762,98.775948 68.531387,98.368805 
	C83.601692,92.409538 93.926773,81.973122 99.073906,66.518265 
	C99.259003,65.962502 99.870148,65.548637 100.641365,65.034325 
	C101.000000,76.925560 101.000000,88.851128 101.000000,101.000000 
	C89.646744,101.000000 78.292030,101.000000 66.468658,101.000000 
z"/>
<path fill="#FCFCFC" opacity="1.000000" stroke="none" 
	d="
M40.993507,55.989174 
	C40.993507,47.669529 40.993507,39.847752 40.993507,31.020027 
	C51.145187,37.774887 60.714130,44.141998 70.984695,50.975967 
	C60.930653,57.691681 51.367313,64.079620 40.993507,71.008919 
	C40.993507,65.614746 40.993507,61.050900 40.993507,55.989174 
z"/>
</svg>